<mxfile host="app.diagrams.net" modified="2021-09-06T11:00:46.216Z" agent="5.0 (X11; Linux x86_64) AppleWebKit/537.36 (KHTML, like Gecko) Chrome/92.0.4515.159 Safari/537.36" etag="6MwRT9fAhPyarXoT1OpP" version="15.0.6" type="github">
  <diagram id="z7T73s2i-OFT3F3iAoDb" name="Page-1">
    <mxGraphModel dx="677" dy="386" grid="1" gridSize="10" guides="1" tooltips="1" connect="1" arrows="1" fold="1" page="1" pageScale="1" pageWidth="827" pageHeight="1169" math="0" shadow="0">
      <root>
        <mxCell id="0" />
        <mxCell id="1" parent="0" />
        <mxCell id="UH2d_EVZu4zvosDESQFh-3" value="" style="edgeStyle=orthogonalEdgeStyle;rounded=0;orthogonalLoop=1;jettySize=auto;html=1;" edge="1" parent="1" source="UH2d_EVZu4zvosDESQFh-1" target="UH2d_EVZu4zvosDESQFh-2">
          <mxGeometry relative="1" as="geometry" />
        </mxCell>
        <mxCell id="UH2d_EVZu4zvosDESQFh-1" value="run tracker for each image frame" style="rounded=1;whiteSpace=wrap;html=1;" vertex="1" parent="1">
          <mxGeometry x="70" y="100" width="120" height="60" as="geometry" />
        </mxCell>
        <mxCell id="UH2d_EVZu4zvosDESQFh-5" value="" style="edgeStyle=orthogonalEdgeStyle;rounded=0;orthogonalLoop=1;jettySize=auto;html=1;" edge="1" parent="1" source="UH2d_EVZu4zvosDESQFh-2" target="UH2d_EVZu4zvosDESQFh-4">
          <mxGeometry relative="1" as="geometry" />
        </mxCell>
        <mxCell id="UH2d_EVZu4zvosDESQFh-2" value="construct image frames" style="whiteSpace=wrap;html=1;rounded=1;" vertex="1" parent="1">
          <mxGeometry x="70" y="240" width="120" height="60" as="geometry" />
        </mxCell>
        <mxCell id="UH2d_EVZu4zvosDESQFh-9" value="" style="edgeStyle=orthogonalEdgeStyle;rounded=0;orthogonalLoop=1;jettySize=auto;html=1;" edge="1" parent="1" source="UH2d_EVZu4zvosDESQFh-4" target="UH2d_EVZu4zvosDESQFh-8">
          <mxGeometry relative="1" as="geometry" />
        </mxCell>
        <mxCell id="UH2d_EVZu4zvosDESQFh-4" value="output_image_frame&lt;br&gt;//init&amp;nbsp;" style="whiteSpace=wrap;html=1;rounded=1;" vertex="1" parent="1">
          <mxGeometry x="70" y="380" width="120" height="60" as="geometry" />
        </mxCell>
        <mxCell id="UH2d_EVZu4zvosDESQFh-7" value="878 - 1222 更改continue" style="shape=parallelogram;perimeter=parallelogramPerimeter;whiteSpace=wrap;html=1;fixedSize=1;" vertex="1" parent="1">
          <mxGeometry x="460" y="110" width="120" height="60" as="geometry" />
        </mxCell>
        <mxCell id="UH2d_EVZu4zvosDESQFh-8" value="Update track_id alias&lt;br&gt;//update output_image_frame&lt;br&gt;" style="whiteSpace=wrap;html=1;rounded=1;" vertex="1" parent="1">
          <mxGeometry x="70" y="520" width="120" height="60" as="geometry" />
        </mxCell>
        <mxCell id="UH2d_EVZu4zvosDESQFh-23" style="edgeStyle=orthogonalEdgeStyle;rounded=0;orthogonalLoop=1;jettySize=auto;html=1;entryX=0.5;entryY=0;entryDx=0;entryDy=0;" edge="1" parent="1" source="UH2d_EVZu4zvosDESQFh-10" target="UH2d_EVZu4zvosDESQFh-14">
          <mxGeometry relative="1" as="geometry" />
        </mxCell>
        <mxCell id="UH2d_EVZu4zvosDESQFh-10" value="input_image_frame&lt;br&gt;//data input&amp;nbsp;" style="shape=parallelogram;perimeter=parallelogramPerimeter;whiteSpace=wrap;html=1;fixedSize=1;" vertex="1" parent="1">
          <mxGeometry x="680" y="400" width="120" height="60" as="geometry" />
        </mxCell>
        <mxCell id="UH2d_EVZu4zvosDESQFh-11" value="build&lt;br&gt;&amp;nbsp;output ID list" style="shape=parallelogram;perimeter=parallelogramPerimeter;whiteSpace=wrap;html=1;fixedSize=1;" vertex="1" parent="1">
          <mxGeometry x="210" y="450" width="120" height="60" as="geometry" />
        </mxCell>
        <mxCell id="UH2d_EVZu4zvosDESQFh-12" value="record if object is in input object" style="shape=parallelogram;perimeter=parallelogramPerimeter;whiteSpace=wrap;html=1;fixedSize=1;" vertex="1" parent="1">
          <mxGeometry x="400" y="460" width="120" height="60" as="geometry" />
        </mxCell>
        <mxCell id="UH2d_EVZu4zvosDESQFh-16" style="edgeStyle=orthogonalEdgeStyle;rounded=0;orthogonalLoop=1;jettySize=auto;html=1;exitX=0.5;exitY=1;exitDx=0;exitDy=0;entryX=0.5;entryY=0;entryDx=0;entryDy=0;" edge="1" parent="1" source="UH2d_EVZu4zvosDESQFh-14" target="UH2d_EVZu4zvosDESQFh-15">
          <mxGeometry relative="1" as="geometry" />
        </mxCell>
        <mxCell id="UH2d_EVZu4zvosDESQFh-24" style="edgeStyle=orthogonalEdgeStyle;rounded=0;orthogonalLoop=1;jettySize=auto;html=1;entryX=0.5;entryY=0;entryDx=0;entryDy=0;" edge="1" parent="1" source="UH2d_EVZu4zvosDESQFh-14" target="UH2d_EVZu4zvosDESQFh-28">
          <mxGeometry relative="1" as="geometry" />
        </mxCell>
        <mxCell id="UH2d_EVZu4zvosDESQFh-14" value="&lt;span&gt;check if input objs is in output ID list&lt;/span&gt;" style="rhombus;whiteSpace=wrap;html=1;" vertex="1" parent="1">
          <mxGeometry x="700" y="490" width="80" height="80" as="geometry" />
        </mxCell>
        <mxCell id="UH2d_EVZu4zvosDESQFh-15" value="pass" style="shape=parallelogram;perimeter=parallelogramPerimeter;whiteSpace=wrap;html=1;fixedSize=1;" vertex="1" parent="1">
          <mxGeometry x="760" y="620" width="120" height="60" as="geometry" />
        </mxCell>
        <mxCell id="UH2d_EVZu4zvosDESQFh-17" value="yes" style="text;html=1;strokeColor=none;fillColor=none;align=center;verticalAlign=middle;whiteSpace=wrap;rounded=0;" vertex="1" parent="1">
          <mxGeometry x="770" y="570" width="40" height="20" as="geometry" />
        </mxCell>
        <mxCell id="UH2d_EVZu4zvosDESQFh-18" value="add objs to output list&lt;br&gt;{&lt;br&gt;fill in all require element&lt;br&gt;}" style="shape=parallelogram;perimeter=parallelogramPerimeter;whiteSpace=wrap;html=1;fixedSize=1;" vertex="1" parent="1">
          <mxGeometry x="570" y="740" width="140" height="70" as="geometry" />
        </mxCell>
        <mxCell id="UH2d_EVZu4zvosDESQFh-21" value="set &quot;if seen this object or not list &quot;&lt;br&gt;//to record if object is in output msg" style="shape=parallelogram;perimeter=parallelogramPerimeter;whiteSpace=wrap;html=1;fixedSize=1;" vertex="1" parent="1">
          <mxGeometry x="410" y="380" width="120" height="60" as="geometry" />
        </mxCell>
        <mxCell id="UH2d_EVZu4zvosDESQFh-22" value="set &quot;if seen this object or not list &quot;&lt;br&gt;//to record if object is in out put msg" style="shape=parallelogram;perimeter=parallelogramPerimeter;whiteSpace=wrap;html=1;fixedSize=1;" vertex="1" parent="1">
          <mxGeometry x="70" y="680" width="120" height="60" as="geometry" />
        </mxCell>
        <mxCell id="UH2d_EVZu4zvosDESQFh-25" value="no&lt;br&gt;" style="text;html=1;strokeColor=none;fillColor=none;align=center;verticalAlign=middle;whiteSpace=wrap;rounded=0;" vertex="1" parent="1">
          <mxGeometry x="660" y="575" width="40" height="20" as="geometry" />
        </mxCell>
        <mxCell id="UH2d_EVZu4zvosDESQFh-32" style="edgeStyle=orthogonalEdgeStyle;rounded=0;orthogonalLoop=1;jettySize=auto;html=1;" edge="1" parent="1" source="UH2d_EVZu4zvosDESQFh-28" target="UH2d_EVZu4zvosDESQFh-18">
          <mxGeometry relative="1" as="geometry" />
        </mxCell>
        <mxCell id="UH2d_EVZu4zvosDESQFh-28" value="record it &quot;ci&quot; (it is in which image -&amp;gt; which object)" style="whiteSpace=wrap;html=1;" vertex="1" parent="1">
          <mxGeometry x="580" y="640" width="120" height="60" as="geometry" />
        </mxCell>
        <mxCell id="UH2d_EVZu4zvosDESQFh-33" value="todo steps" style="text;html=1;strokeColor=none;fillColor=none;align=center;verticalAlign=middle;whiteSpace=wrap;rounded=0;" vertex="1" parent="1">
          <mxGeometry x="440" y="340" width="70" height="20" as="geometry" />
        </mxCell>
        <mxCell id="UH2d_EVZu4zvosDESQFh-34" value="to iterate output objects, to see if there is any lost&amp;nbsp;" style="shape=parallelogram;perimeter=parallelogramPerimeter;whiteSpace=wrap;html=1;fixedSize=1;" vertex="1" parent="1">
          <mxGeometry x="380" y="540" width="140" height="70" as="geometry" />
        </mxCell>
        <mxCell id="UH2d_EVZu4zvosDESQFh-35" value="add lost object with require data fill in" style="shape=parallelogram;perimeter=parallelogramPerimeter;whiteSpace=wrap;html=1;fixedSize=1;" vertex="1" parent="1">
          <mxGeometry x="370" y="620" width="140" height="70" as="geometry" />
        </mxCell>
      </root>
    </mxGraphModel>
  </diagram>
</mxfile>
